<svg xmlns="http://www.w3.org/2000/svg" viewBox="0 0 271.25 77"><defs><style>.cls-1{fill:#fff;}</style></defs><title>button</title><g id="圖層_3" data-name="圖層 3"><polygon class="cls-1" points="242.75 0 28.5 0 0 38.5 28.5 77 242.75 77 271.25 38.5 242.75 0"/></g><g id="圖層_4" data-name="圖層 4"><path d="M691.33,344.33l8.55-.17,9.81-.2,6-.12h143.5c2.33,0,4.57,0,6.69,0l6,.12,9.81.2,8.55.17-8.55.17-9.81.2-6,.12c-2.13,0-4.36,0-6.69,0H715.73l-6-.12-9.81-.2Z" transform="translate(-654.5 -338)"/><path d="M691.33,408.33l8.55-.17,9.81-.2,6-.12h143.5c2.33,0,4.57,0,6.69,0l6,.12,9.81.2,8.55.17-8.55.17-9.81.2-6,.12c-2.13,0-4.36,0-6.69,0H715.73l-6-.12-9.81-.2Z" transform="translate(-654.5 -338)"/><path d="M667.48,370.63s4.45-5.74,9-11.42c1.12-1.43,2.23-2.87,3.3-4.19.55-.65,1.07-1.29,1.59-1.87l1.46-1.64c.45-.51.89-1,1.27-1.36s.71-.75,1-1c.56-.57.89-.88.89-.88l.08.06s-.24.39-.7,1c-.22.33-.5.73-.83,1.17s-.68,1-1.1,1.5l-1.33,1.75c-.47.62-1,1.25-1.53,1.92-1.09,1.3-2.29,2.66-3.48,4-4.72,5.52-9.5,11-9.5,11Z" transform="translate(-654.5 -338)"/><path d="M914.44,370.69s-4.79-5.46-9.5-11c-1.19-1.37-2.39-2.73-3.48-4-.53-.67-1.06-1.29-1.53-1.92L898.6,352c-.42-.54-.77-1.06-1.1-1.5s-.6-.84-.83-1.17c-.45-.66-.7-1-.7-1l.08-.06s.33.31.89.88c.28.28.62.63,1,1s.82.85,1.27,1.36l1.46,1.64c.52.58,1,1.22,1.59,1.87,1.07,1.32,2.18,2.76,3.3,4.19,4.52,5.68,9,11.42,9,11.42Z" transform="translate(-654.5 -338)"/><path d="M666.68,381.32s4.79,5.46,9.5,11c1.19,1.37,2.39,2.73,3.48,4,.53.67,1.06,1.29,1.53,1.92l1.33,1.75c.42.54.77,1.06,1.1,1.5s.6.84.83,1.17c.45.66.7,1,.7,1l-.08.06s-.33-.31-.89-.88c-.28-.28-.62-.63-1-1s-.82-.85-1.27-1.36l-1.46-1.64c-.52-.58-1-1.22-1.59-1.87-1.07-1.32-2.18-2.76-3.3-4.19-4.52-5.68-9-11.42-9-11.42Z" transform="translate(-654.5 -338)"/><path d="M913.64,381.38s-4.45,5.74-9,11.42c-1.12,1.43-2.23,2.87-3.3,4.19-.55.65-1.07,1.29-1.59,1.87l-1.46,1.64c-.45.51-.89,1-1.27,1.36s-.71.75-1,1c-.56.57-.89.88-.89.88l-.08-.06s.24-.39.7-1c.22-.33.5-.73.83-1.17s.68-1,1.1-1.5l1.33-1.75c.47-.62,1-1.25,1.53-1.92,1.09-1.3,2.29-2.66,3.48-4,4.72-5.52,9.5-11,9.5-11Z" transform="translate(-654.5 -338)"/></g><g id="圖層_5" data-name="圖層 5"><polygon points="44.75 34.74 44.75 34.74 49.32 40.5 44.75 46.25 44.75 46.25 62.31 40.5 44.75 34.74"/></g></svg>