<svg id="navTop" xmlns="http://www.w3.org/2000/svg" viewBox="0 0 43.23 16.43"><defs><style>.cls-1{fill:#505050;}.cls-2{fill:#bababa;}</style></defs><title>navTop</title><path class="cls-1" d="M114.67,67.79h.82l.26,2.46h-.81l0-.33h-.54v4.5h-.8V70l-1.43.05,1.12-2.13-1.14-1.14,1.3-2.55h.9l-1.18,2.36.53.54.58-1.16h.91l-1.63,3.14,1.27,0Zm-2.51,5.93.24-2.63h.81L113,73.72Zm2.62-2.36h.81l.1,1.85h-.81Zm7-1.83-1.27,1.32.81,3.41h-.8l-1.37-5.79h-.19l.9,4.21v1.66h-1.66v-.87h.89V72.8l-.11-.61-1.27,1.17h-1.21l2.25-2.09-.15-.75-1,.83h-1.28l2.06-1.75-.16-.72-.74.65h-1.25l1.21-1.06H116v-.93h3.67v-.68H117v-.93h2.73v-.68h-3.19v-.92h4v3.21h.95v.93h-1.57l.34,1.43.34-.37Z" transform="translate(-112.11 -64.2)"/><path class="cls-2" d="M124.8,65.25h7v8.12h-7Zm6,1.07h-5.05v2.31h5.05Zm-5.05,6h5.05V69.71h-5.05Z" transform="translate(-112.11 -64.2)"/><path class="cls-1" d="M139.53,69.83h-3.67V66.9h-.78l1-2.48h.77l-.31.74h.67l.31-.74h.74l-.3.74h1.53v.77h-1.41v.54h1v.75h-1v.56h1v.75h-1v.54h1.41Zm3.65.84L141,73l2.5.59v1l-3.5-.83-4,.75v-1l2.81-.52L137.42,72h1.65l1,.65,1-1.07h-4.81v-.95Zm-6.63-4.75v.54h.89v-.54Zm0,1.29v.56h.89v-.56Zm0,1.32v.54h.89v-.54Zm7.39-2.61h-1.3v.54h1v.75h-1v.56h1v.75h-1v.54h1.3v.77h-3.6v-3l0,.1h-.75l1-2.48h.77l-.3.74h.73l.3-.74h.75l-.3.74h1.43Zm-2,.54v-.54H141v.54Zm0,1.32v-.56H141v.56Zm0,1.29v-.54H141v.54Z" transform="translate(-112.11 -64.2)"/><path class="cls-2" d="M151.6,66.62h3.74v1h-8.39v-1h3.74V64.72h.92Zm-4.35,7.08,1.57-4h1l-1.58,4Zm5.21-4h1l1.65,4h-1Z" transform="translate(-112.11 -64.2)"/><path class="cls-1" d="M126.05,77.4h.39v3.23h-.39V79h-1.33v1.66h-.39V77.4h.39v1.21h1.33Z" transform="translate(-112.11 -64.2)"/><path class="cls-2" d="M128.13,77.4h2.09v3.23h-.4V79h-1.29v1.66h-.39Zm.39,1.21h1.29v-.84h-1.29Z" transform="translate(-112.11 -64.2)"/><path class="cls-1" d="M131.9,77.4h.56l1.17,1.14V77.4H134v3.23h-.39V79.07l-1.35-1.31v2.88h-.38Z" transform="translate(-112.11 -64.2)"/><path class="cls-1" d="M135.7,77.4h2.09v3.23h-.4V79H136.1v1.66h-.39Zm.39,1.21h1.29v-.84H136.1Z" transform="translate(-112.11 -64.2)"/><path class="cls-2" d="M141.21,78.61h.35v2h-2.08V77.4h1.73Zm-.4-.84h-.93v.84h.93Zm-.93,2.51h1.29V79h-1.29Z" transform="translate(-112.11 -64.2)"/><path class="cls-2" d="M143.65,80.64h-.4V77.4h.4Z" transform="translate(-112.11 -64.2)"/></svg>